<?xml version="1.0" encoding="UTF-8"?>
<svg width="16px" height="13px" viewBox="0 0 16 13" version="1.1" xmlns="http://www.w3.org/2000/svg" xmlns:xlink="http://www.w3.org/1999/xlink">
    <!-- Generator: Sketch 51.2 (57519) - http://www.bohemiancoding.com/sketch -->
    <title>18 copy</title>
    <desc>Created with Sketch.</desc>
    <defs></defs>
    <g id="Symbols" stroke="none" stroke-width="1" fill="none" fill-rule="evenodd">
        <g id="adult-tag" transform="translate(-3.000000, -5.000000)" fill="#FFFFFF">
            <g id="adult">
                <path d="M9.19780075,17.25 L6.81202804,17.25 L6.81202804,10.7180786 L6.83519088,9.64486694 L6.87379562,8.47128296 C6.47745168,8.8676269 6.20207398,9.12756286 6.04765426,9.25109863 L4.75053512,10.2934265 L3.60011398,8.85733032 L7.23668014,5.9619751 L9.19780075,5.9619751 L9.19780075,17.25 Z M14.8265584,5.8152771 C15.9074965,5.8152771 16.778668,6.06105813 17.4400991,6.55262756 C18.1015302,7.044197 18.4322408,7.70690501 18.4322408,8.54077148 C18.4322408,9.11727176 18.2726762,9.63070962 17.9535421,10.0811005 C17.634408,10.5314913 17.1196833,10.9342634 16.4093526,11.2894287 C17.2535137,11.7423932 17.859602,12.2146531 18.2276357,12.7062225 C18.5956694,13.197792 18.7796834,13.7369661 18.7796834,14.323761 C18.7796834,15.2502793 18.4168025,15.9953433 17.6910299,16.5589752 C16.9652572,17.1226072 16.0104429,17.4044189 14.8265584,17.4044189 C13.5912007,17.4044189 12.6209447,17.1419094 11.9157613,16.6168823 C11.2105779,16.0918553 10.8579915,15.3480781 10.8579915,14.3855286 C10.8579915,13.7421131 11.0291375,13.1707687 11.3714345,12.6714783 C11.7137316,12.1721879 12.2632002,11.7320983 13.0198568,11.3511963 C12.3764413,10.9445577 11.9131891,10.5096154 11.6300863,10.0463562 C11.3469834,9.58309705 11.2054342,9.07609325 11.2054342,8.52532959 C11.2054342,7.71719974 11.5400052,7.0634994 12.2091573,6.56420898 C12.8783094,6.06491856 13.7507677,5.8152771 14.8265584,5.8152771 Z M13.0661825,14.2465515 C13.0661825,14.6892214 13.2205999,15.0340869 13.5294393,15.2811584 C13.8382787,15.52823 14.260353,15.6517639 14.7956746,15.6517639 C15.3876169,15.6517639 15.8302801,15.5243696 16.1236776,15.269577 C16.417075,15.0147845 16.5637716,14.6789266 16.5637716,14.2619934 C16.5637716,13.9171227 16.4183618,13.594133 16.127538,13.2930145 C15.8367142,12.9918961 15.3644544,12.67148 14.7107442,12.3317566 C13.6143642,12.8361943 13.0661825,13.4744529 13.0661825,14.2465515 Z M14.8111165,7.56021118 C14.4044779,7.56021118 14.076341,7.66444293 13.8266958,7.87290955 C13.5770506,8.08137616 13.4522298,8.3606143 13.4522298,8.71063232 C13.4522298,9.01947176 13.5513143,9.29613627 13.7494863,9.54063416 C13.9476583,9.78513204 14.3066787,10.0360603 14.8265584,10.2934265 C15.3309962,10.0566496 15.6835826,9.81472902 15.8843282,9.56765747 C16.0850738,9.32058592 16.1854451,9.03491373 16.1854451,8.71063232 C16.1854451,8.35546697 16.056764,8.07494203 15.7993978,7.86904907 C15.5420316,7.66315612 15.2126078,7.56021118 14.8111165,7.56021118 Z" id="18-copy"></path>
            </g>
        </g>
    </g>
</svg>