<?xml version="1.0" encoding="UTF-8"?>
<svg width="15px" height="14px" viewBox="0 0 15 14" version="1.1" xmlns="http://www.w3.org/2000/svg" xmlns:xlink="http://www.w3.org/1999/xlink">
    <!-- Generator: Sketch 51.2 (57519) - http://www.bohemiancoding.com/sketch -->
    <title>noun_Headphones_1219649 Copy</title>
    <desc>Created with Sketch.</desc>
    <defs></defs>
    <g id="Symbols" stroke="none" stroke-width="1" fill="none" fill-rule="evenodd">
        <g id="audio-tag" transform="translate(-4.000000, -4.000000)" fill="#FFFFFF" fill-rule="nonzero">
            <g id="audio">
                <g id="noun_Headphones_1219649-Copy" transform="translate(4.791667, 4.791667)">
                    <path d="M6.71724989,0 C3.00932795,0 0,2.97739726 0,6.64597603 L0,10.0132705 C0.0179126664,11.6260274 1.36136264,12.9375 2.99141528,12.9375 L3.38549394,12.9375 C3.72583461,12.9375 4.01243727,12.6539384 4.01243727,12.3172089 L4.01243727,7.62071918 C4.01243727,7.28398973 3.72583461,7.00042808 3.38549394,7.00042808 L2.99141528,7.00042808 C2.34655929,7.00042808 1.73752864,7.21309932 1.23597398,7.56755137 L1.23597398,6.64597603 C1.23597398,3.66857877 3.69000927,1.24058219 6.69933722,1.24058219 C9.70866517,1.24058219 12.1806131,3.66857877 12.1806131,6.64597603 L12.1806131,7.56755137 C11.6790585,7.21309932 11.0879405,7.00042808 10.4251718,7.00042808 L10.0310932,7.00042808 C9.69075251,7.00042808 9.40414984,7.28398973 9.40414984,7.62071918 L9.40414984,12.3172089 C9.40414984,12.6539384 9.69075251,12.9375 10.0310932,12.9375 L10.4251718,12.9375 C12.0731371,12.9375 13.3986744,11.6260274 13.4165871,10.0132705 L13.4165871,6.64597603 C13.4344998,2.97739726 10.4251718,0 6.71724989,0 Z" id="Shape"></path>
                </g>
            </g>
        </g>
    </g>
</svg>