<?xml version="1.0" encoding="UTF-8"?>
<svg width="29px" height="27px" viewBox="0 0 29 27" version="1.1" xmlns="http://www.w3.org/2000/svg" xmlns:xlink="http://www.w3.org/1999/xlink">
    <g id="Symbols" stroke="none" stroke-width="1" fill="none" fill-rule="evenodd">
        <g id="donate-button" transform="translate(-10.000000, -11.000000)" fill="currentColor" fill-rule="nonzero">
            <g id="Combined-Shape">
                <path d="M31.848278,12.1421646 C33.3839073,13.6678396 33.3839073,16.1406744 31.848278,17.6663493 L31.0331412,18.4758153 L25.4702559,24 L19.9073705,18.4758153 L19.0922337,17.6663493 C17.612851,16.1315758 17.6395724,13.7041916 19.1523881,12.2019005 C20.6652038,10.6996093 23.1095934,10.6730738 24.655119,12.1421646 L25.4702559,12.9516306 L26.2853927,12.1421646 C27.8226144,10.6192785 30.3110564,10.6192785 31.848278,12.1421646 Z M10.6269793,35.4524271 C10.2807082,35.4524271 10,35.170584 10,34.8229129 L10,27.8982569 C10,27.5505859 10.2807082,27.2687428 10.6269793,27.2687428 L15.5738456,27.2687428 L21.1476912,26.0097144 C21.22027,25.9967619 21.2945551,25.9967619 21.3671339,26.0097144 L29.5617528,27.1365448 C30.5676632,27.2749847 31.3172996,28.1378639 31.3172947,29.1572853 C31.324857,30.2012159 30.5345064,31.076853 29.4990549,31.1717307 L23.448705,31.6816372 L22.9722008,32.1600679 L24.5208396,32.9343704 L31.6872125,31.719408 L35.5932932,28.7858719 C36.3648947,28.2045667 37.4557832,28.3375904 38.0663674,29.0874402 C38.6769517,29.83729 38.5899922,30.9371772 37.8692279,31.5809149 L32.9850595,35.937153 C32.8992164,36.0149328 32.7922793,36.0653307 32.6778397,36.0819413 C21.4047527,38.0775012 21.9878434,38.0586158 21.7119725,37.9704838 L14.2885381,35.4524271 L10.6269793,35.4524271 Z"></path>
            </g>
        </g>
    </g>
</svg>
