<?xml version="1.0" encoding="UTF-8"?>
<svg width="22px" height="26px" viewBox="0 0 22 26" version="1.1" xmlns="http://www.w3.org/2000/svg" xmlns:xlink="http://www.w3.org/1999/xlink">
    <!-- Generator: Sketch 51.2 (57519) - http://www.bohemiancoding.com/sketch -->
    <title>Shape</title>
    <desc>Created with Sketch.</desc>
    <defs></defs>
    <g id="Symbols" stroke="none" stroke-width="1" fill="none" fill-rule="evenodd">
        <g id="B-logo-white" fill="#FFFFFF" fill-rule="nonzero">
            <g id="Boston-Globe-B-Digital">
                <path d="M18.018544,10.2010474 C19.5370879,9.26302008 20.0281593,8.99447192 20.5645604,8.58975851 C21.5051511,7.92027931 21.7733516,7.5155659 21.7733516,7.11085249 C21.7733516,6.80069828 21.6373626,6.21443119 20.9234203,5.14402095 C20.0281593,3.80128019 19.1820055,2.50392784 17.3914835,0 C14.8870192,1.70206576 13.5044643,2.72708758 10.8677885,4.78469596 C9.79498626,5.63572883 8.99038462,6.9784696 8.99038462,8.68053535 C8.99038462,9.26302008 9.03571429,12.2586558 9.03571429,14.2292697 C9.03571429,15.7497818 8.76751374,16.5592086 7.15831044,17.898167 C3.27129121,17.898167 0.944368132,20.4058772 0.944368132,22.9135874 C0.944368132,23.98778 1.30322802,25.1073611 2.10782967,26 L2.37603022,25.7352342 C1.88495879,25.1943555 1.4845467,24.3433227 1.4845467,23.3599069 C1.4845467,22.0171661 2.46668956,20.5420425 5.54910714,20.5420425 C8.94505495,20.5420425 12.1181319,22.8719814 13.9539835,23.9915624 C16.5906593,21.7524003 18.2451923,20.814373 21.6411401,19.694792 L21.6411401,14.00611 C21.6411401,13.6051789 21.7771291,13.2004655 22,12.8449229 L18.018544,10.2010474 Z M14.2637363,20.4096596 C12.3863324,19.2900786 10.1085165,18.1251091 7.69093407,17.9473378 C9.97252747,16.6499855 12.2503434,14.9025313 12.2503434,12.3494326 L12.2503434,6.75909223 C12.2503434,4.96624964 12.9642857,3.89205703 14.8416896,2.28076811 C16.3149038,4.47454175 16.9004121,5.4125691 18.0600962,7.38318301 C18.3282967,7.82950247 18.5058379,8.27960431 18.5058379,8.50276404 C18.5058379,9.48617981 17.6143544,9.97788769 14.6150412,11.8577248 L14.6150412,8.99447192 C14.6150412,7.56095432 14.7057005,6.75909223 14.7510302,6.17282514 L14.1239698,6.17282514 C14.2146291,6.80069828 14.2599588,7.56095432 14.2599588,8.99447192 L14.2599588,20.4096596 L14.2637363,20.4096596 Z M17.9278846,20.5420425 C17.2554945,20.9013675 16.8097527,21.1245272 16.1864698,21.5708467 C15.6953984,21.2606925 15.2043269,20.9429735 14.6225962,20.5874309 L14.6225962,12.2624382 L18.018544,14.0968868 L17.9278846,20.5420425 Z M2.37225275,12.1716613 C3.40350275,12.1716613 4.15899725,12.6179808 4.51785714,13.2458539 C4.51785714,15.9767239 3.98145604,17.3648531 2.55357143,17.3648531 L2.55357143,17.6787896 C4.69917582,17.6787896 7.28674451,16.1128891 7.28674451,13.6089613 L7.28674451,8.59354088 C7.28674451,4.47454175 9.70054945,2.55309863 12.6507555,1.52051207 L12.5600962,1.25196392 C10.6826923,1.25196392 9.65521978,1.02880419 8.66929945,0.851032878 C7.72870879,0.718649985 6.92788462,0.540878673 5.80975275,0.540878673 C2.8595467,0.540878673 0.936813187,2.06139075 0.936813187,4.52371254 C0.936813187,5.55251673 1.15968407,6.13500145 1.83207418,6.89525749 L2.10027473,6.62670934 C1.74141484,6.18038987 1.56387363,5.73407041 1.56387363,5.24236253 C1.56387363,4.16816992 2.45913462,3.2263602 4.42342033,3.2263602 C5.90041209,3.2263602 7.24141484,3.49869072 8.4010989,3.7634565 C5.90041209,5.59790515 4.37809066,6.94064591 4.37809066,10.8364853 C4.02300824,10.70032 3.52815934,10.6133256 2.8595467,10.6133256 C0.982142857,10.6133256 0,11.8652895 0,13.071865 C0,13.6089613 0.132211538,14.191446 0.491071429,14.5923771 L0.804601648,14.4183881 C0.668612637,14.1460576 0.581730769,13.8775095 0.581730769,13.6127437 C0.585508242,12.7995345 1.20879121,12.1716613 2.37225275,12.1716613 Z" id="Shape"></path>
            </g>
        </g>
    </g>
</svg>