<?xml version="1.0" encoding="UTF-8"?>
<svg width="6px" height="13px" viewBox="0 0 6 13" version="1.1" xmlns="http://www.w3.org/2000/svg" xmlns:xlink="http://www.w3.org/1999/xlink">
    <!-- Generator: Sketch 51.2 (57519) - http://www.bohemiancoding.com/sketch -->
    <title>Combined Shape</title>
    <desc>Created with Sketch.</desc>
    <defs></defs>
    <g id="Symbols" stroke="none" stroke-width="1" fill="none" fill-rule="evenodd">
        <path d="M3.02434996,1.0367697 C3.18965448,0.430930168 3.73721243,0.00857467979 4.36516996,0.00253636453 C4.63610797,-0.0184553971 4.90067513,0.0917762561 5.0765548,0.298934175 C5.25243447,0.506092093 5.31828372,0.785037745 5.2536144,1.04898081 C5.08830903,1.65481814 4.54075009,2.07716985 3.9127944,2.08320303 C3.64185886,2.10419371 3.37729431,1.99396345 3.20141521,1.78680839 C3.0255361,1.57965333 2.95968488,1.30071118 3.02434996,1.0367697 Z M5.30060068,10.3474267 C4.67356184,11.0911173 3.90926628,11.7071927 3.04940513,12.1620467 C1.85170735,12.7705134 0.515498459,12.4823578 0.76310957,11.3433334 L2.00264068,5.64111117 C2.23853401,4.55606895 1.26566068,4.6601534 0.164531792,5.2940934 C0.117854578,5.32012025 0.0592455122,5.30906437 0.0252579934,5.26782108 C-0.00872952545,5.2265778 -0.00838051735,5.16693609 0.0260873477,5.1260934 C0.653124153,4.38240869 1.41741577,3.76633804 2.27727179,3.31148673 C3.47496957,2.70304229 4.81117846,2.99118895 4.56362068,4.13020006 L3.32403624,9.83242229 C3.0881429,10.9174645 4.06101624,10.8133667 5.16214513,10.1794267 C5.20882317,10.1533861 5.26744328,10.1644363 5.30143715,10.205684 C5.33543101,10.2469316 5.33507899,10.3065831 5.30060068,10.3474267 Z" id="Combined-Shape" fill="#FFFFFF"></path>
    </g>
</svg>