<?xml version="1.0" encoding="UTF-8"?>
<svg width="9px" height="17px" viewBox="0 0 9 17" version="1.1" xmlns="http://www.w3.org/2000/svg" xmlns:xlink="http://www.w3.org/1999/xlink">
    <!-- Generator: Sketch 51.2 (57519) - http://www.bohemiancoding.com/sketch -->
    <title>$ copy 2</title>
    <desc>Created with Sketch.</desc>
    <defs></defs>
    <g id="Symbols" stroke="none" stroke-width="1" fill="none" fill-rule="evenodd">
        <g id="paywall-tag" transform="translate(-7.000000, -3.000000)" fill="#FFFFFF">
            <g id="paywall">
                <path d="M15.3408203,13.8965352 C15.3408203,14.9133657 15.0546412,15.7271376 14.4822744,16.3378754 C13.9099076,16.9486131 13.0961356,17.3083355 12.0409342,17.4170532 L12.0409342,19.4219259 L10.928182,19.4219259 L10.928182,17.455424 C9.71310156,17.417053 8.62594067,17.1484603 7.66666667,16.6496379 L7.66666667,14.2898356 C8.17827947,14.5904081 8.71866238,14.8366181 9.28783162,15.0284729 C9.85700087,15.2203277 10.4037788,15.3290438 10.928182,15.3546244 L10.928182,12.1122945 L10.5924377,11.9588114 C9.50526054,11.4408035 8.74584668,10.9052169 8.31417338,10.3520355 C7.88250008,9.79885418 7.66666667,9.10339096 7.66666667,8.265625 C7.66666667,7.306351 7.95124702,6.53414701 8.52041626,5.94898987 C9.0895855,5.36383273 9.89216604,5.01370297 10.928182,4.89859009 L10.928182,3.35416667 L12.0409342,3.35416667 L12.0409342,4.8794047 C13.032184,4.9433563 14.0170239,5.21834406 14.9954834,5.70437622 L14.228068,7.74761963 C13.4094876,7.35111971 12.6804502,7.12409493 12.0409342,7.06653849 L12.0409342,10.1074219 C12.2391842,10.1841638 12.3383077,10.2289292 12.3383077,10.2417196 C13.150493,10.5934534 13.7580241,10.9339905 14.1609192,11.2633413 C14.5638143,11.592692 14.8611848,11.9700008 15.0530396,12.3952789 C15.2448944,12.8205571 15.3408203,13.3209708 15.3408203,13.8965352 Z M13.0865377,13.9540914 C13.0865377,13.6663092 13.0241858,13.4280931 12.8994802,13.2394358 C12.7747746,13.0507786 12.4885954,12.8445378 12.0409342,12.6207072 L12.0409342,15.2970683 C12.7380067,15.1755602 13.0865377,14.7279058 13.0865377,13.9540914 Z M9.9209493,8.265625 C9.9209493,8.59177816 9.99769007,8.85557455 10.1511739,9.05702209 C10.3046577,9.25846964 10.5636578,9.43273513 10.928182,9.57982381 L10.928182,7.06653849 C10.2566902,7.16886105 9.9209493,7.56855256 9.9209493,8.265625 Z" id="$-copy-2"></path>
            </g>
        </g>
    </g>
</svg>