<svg height='16px' width='16px'  fill="#fff" xmlns="http://www.w3.org/2000/svg" data-name="Layer 1" viewBox="0 0 100 100" x="0px" y="0px"><title>travel</title><path d="M84.04041,27.79968A8.37225,8.37225,0,1,1,72.20026,15.95953a2.17776,2.17776,0,0,1,.1925-.17761l-10.782-10.782L48.03973,18.571,81.429,51.96027l13.5711-13.571-10.782-10.782A2.19534,2.19534,0,0,1,84.04041,27.79968Z"></path><path d="M15.95953,72.20026A8.37225,8.37225,0,0,1,27.79968,84.04041a2.1833,2.1833,0,0,1-.19244.17767l10.782,10.782L78.60059,54.7887,45.2113,21.39941,4.99994,61.61078l10.782,10.782A2.18338,2.18338,0,0,1,15.95953,72.20026Z"></path></svg>
