<svg fill="#ffffff" xmlns="http://www.w3.org/2000/svg" xmlns:xlink="http://www.w3.org/1999/xlink" version="1.1" x="0px" y="0px" viewBox="0 0 1024 1024" style="enable-background:new 0 0 1024 1024;" xml:space="preserve"><g><path d="M873.5,236.2c0,65.9-53.4,119.2-119.2,119.2c-44.4,0-83.1-24.3-103.6-60.2c-9.9-17.4-15.6-37.5-15.6-59   c0-65.9,53.4-119.2,119.2-119.2C820.1,117,873.5,170.4,873.5,236.2z"></path><g><path d="M858.5,236.2c0,2.8-0.1,5.6-0.3,8.4c-0.1,1.4-0.2,2.8-0.4,4.1c-0.1,0.7-0.2,1.4-0.2,2.1    c-0.3,2.4,0.4-2.3,0,0.1c-1,5.8-2.2,11.5-4,17.1c-0.8,2.6-1.7,5.1-2.7,7.6c-0.2,0.6-0.5,1.2-0.7,1.9c0.1-0.2,0.9-2.1,0.2-0.5    c-0.6,1.4-1.3,2.8-2,4.2c-2.4,4.9-5.2,9.7-8.2,14.2c-0.7,1.1-1.5,2.2-2.3,3.2c-0.4,0.5-0.8,1.1-1.2,1.6c0.1-0.2,1.4-1.8,0.3-0.4    c-1.8,2.2-3.6,4.4-5.5,6.5c-3.8,4.2-8,8.1-12.3,11.7c-0.7,0.6-3.1,2.4-1.1,0.9c-1.1,0.8-2.1,1.6-3.2,2.3c-2.3,1.6-4.7,3.2-7.2,4.6    c-2.3,1.4-4.6,2.6-6.9,3.8c-1.2,0.6-2.4,1.2-3.6,1.7c-0.8,0.4-4.4,1.9-1.9,0.9c-5.2,2.1-10.5,3.9-15.9,5.2    c-2.8,0.7-5.7,1.3-8.6,1.8c-1,0.2-4.1,0.6-1.4,0.3c-1.6,0.2-3.2,0.4-4.8,0.5c-6,0.5-12.1,0.6-18.2,0.2c-1.5-0.1-3-0.2-4.5-0.4    c-0.7-0.1-4.3-0.6-2-0.2c-3.2-0.5-6.4-1.1-9.5-1.9c-6-1.4-11.8-3.3-17.5-5.6c2.2,0.9-1.8-0.8-2.4-1.1c-1.3-0.6-2.6-1.3-3.9-1.9    c-2.8-1.4-5.5-3-8.1-4.7c-2.4-1.5-4.8-3.2-7.1-4.8c-2.2-1.5,0.5,0.5-1.5-1.2c-1.3-1.1-2.6-2.1-3.8-3.2c-4.5-4-8.7-8.2-12.5-12.8    c-0.4-0.5-2.6-3.2-1.2-1.5c-0.9-1.1-1.7-2.3-2.6-3.5c-1.9-2.7-3.8-5.6-5.5-8.5c-1.7-2.8-3.2-5.7-4.6-8.7c-1.4-3-2-4.3-3.3-8.1    c-4.9-13.7-6.7-25.3-6.3-39.5c0.1-3,0.3-6,0.6-9c0.1-1,0.6-4.1,0.2-1.5c0.3-1.6,0.5-3.1,0.8-4.7c1.1-5.5,2.5-11,4.3-16.3    c0.4-1.3,0.9-2.5,1.4-3.8c0.3-0.9,1.5-3.7,0.5-1.3c1.2-2.6,2.4-5.2,3.7-7.7c2.5-4.9,5.4-9.5,8.6-14c0.4-0.5,0.8-1.1,1.2-1.6    c1.3-1.9-1.4,1.7,0-0.1c0.8-1,1.6-2,2.5-3c1.8-2.2,3.7-4.3,5.7-6.3c1.8-1.9,3.7-3.7,5.7-5.4c1-0.9,2-1.7,3-2.6    c0.5-0.4,1-0.8,1.5-1.2c0.2-0.2,2.4-1.8,1.1-0.9c-1.1,0.8,1.7-1.2,2.2-1.6c1.1-0.8,2.2-1.5,3.2-2.2c2.4-1.6,4.8-3.1,7.3-4.4    c2.3-1.3,4.6-2.5,7-3.6c1.2-0.6,2.4-1.1,3.6-1.6c-2.6,1.1,1.6-0.6,2.6-1c5.3-1.9,10.6-3.5,16.1-4.7c1.3-0.3,2.7-0.6,4-0.8    c0.6-0.1,4.2-0.7,2.7-0.5c-1.4,0.2,2.2-0.2,2.8-0.3c1.6-0.2,3.2-0.3,4.8-0.4c5.8-0.3,11.7-0.3,17.5,0.3c1.4,0.1,2.7,0.3,4.1,0.4    c1.8,0.2-0.3,0-0.6-0.1c0.7,0.1,1.4,0.2,2,0.3c3.1,0.5,6.2,1.2,9.3,2c5.4,1.4,10.7,3.1,15.9,5.2c-2.4-1,0.4,0.2,1.3,0.6    c1.2,0.6,2.4,1.1,3.6,1.7c2.6,1.3,5.1,2.7,7.5,4.1c2.3,1.3,4.5,2.8,6.6,4.3c1.1,0.7,2.1,1.5,3.2,2.3c1.4,1-0.2-0.2-0.4-0.4    c0.7,0.5,1.4,1.1,2,1.6c4.4,3.6,8.5,7.5,12.3,11.7c1.8,1.9,3.4,3.9,5.1,6c1.8,2.2-0.8-1.2,0.8,1.1c0.9,1.3,1.8,2.5,2.6,3.8    c3.1,4.5,5.8,9.3,8.2,14.2c0.6,1.2,1.1,2.4,1.7,3.6c1.2,2.6-0.4-1.4,0.6,1.3c1,2.7,2,5.4,2.9,8.2c1.8,5.6,3,11.3,4,17.1    c0.3,1.8,0-0.3-0.1-0.6c0.1,0.7,0.2,1.4,0.2,2.1c0.2,1.4,0.3,2.8,0.4,4.1C858.4,230.2,858.4,233.2,858.5,236.2    c0,7.8,6.9,15.4,15,15c8.1-0.4,15-6.6,15-15c-0.3-54.9-33.9-103.8-84.5-124.6c-49.8-20.5-109.5-7.2-146.5,31.5    c-41.2,43-49.3,110.1-18.7,161.5c30.1,50.5,91.1,75.9,148.1,61.8c50.8-12.5,91.8-56.3,99.7-108.3c1.1-7.3,1.8-14.6,1.9-22    c0-7.8-6.9-15.4-15-15C865.3,221.6,858.5,227.8,858.5,236.2z"></path></g></g><g><path d="M389,512c0,21.5-5.7,41.6-15.6,59c-20.5,36-59.3,60.2-103.6,60.2c-65.9,0-119.2-53.4-119.2-119.2   s53.4-119.2,119.2-119.2c44.4,0,83.1,24.3,103.6,60.2C383.4,470.4,389,490.5,389,512z"></path><g><path d="M374,512c-0.1,13.9-2.4,26.2-7.8,39.9c-1.5,3.8-5,10.4-8,15.2c-3.4,5.5-5.7,8.6-8.7,12    c-8.5,9.8-15.5,15.8-25.3,21.7c-4.5,2.8-9.3,5.2-14.1,7.4c2.7-1.2-1.7,0.7-1.8,0.7c-1.4,0.5-2.7,1-4.1,1.5    c-3.3,1.1-6.6,2.1-9.9,2.9c-2.9,0.7-5.8,1.2-8.8,1.8c-4.7,0.9,2.9-0.2-2,0.3c-1.5,0.2-3,0.3-4.5,0.4c-5.9,0.4-11.7,0.5-17.6,0.1    c-1.4-0.1-2.8-0.2-4.1-0.4c-0.4,0-4.9-0.7-1.5-0.2c-2.7-0.4-5.4-0.9-8-1.5c-5.7-1.3-11.3-2.9-16.7-5c-0.4-0.1-4.4-1.9-1.3-0.5    c-1.2-0.5-2.4-1.1-3.6-1.6c-2-0.9-3.9-1.9-5.9-3c-5-2.7-9.8-5.8-14.3-9.2c2.7,2-0.8-0.6-1.1-0.9c-1-0.8-2-1.7-3-2.5    c-2-1.7-3.9-3.5-5.7-5.4c-1.8-1.8-3.6-3.8-5.4-5.7c-0.7-0.8-1.4-1.7-2.1-2.5c-0.4-0.5-3.2-4.2-1.3-1.6c-3.1-4.2-6-8.6-8.6-13.2    c-1.3-2.3-2.5-4.6-3.6-7c-0.6-1.2-1.1-2.4-1.6-3.6c1.3,3.1-0.8-2-1-2.6c-1.7-4.6-3.1-9.3-4.3-14.1c-0.6-2.7-1.1-5.3-1.6-8    c-0.8-4.4,0.2,3-0.2-1.4c-0.2-1.8-0.4-3.7-0.5-5.5c-0.4-5.6-0.4-11.2,0-16.8c0.1-1.4,0.2-2.8,0.4-4.1c0-0.4,0.7-4.9,0.2-1.5    c0.5-2.9,1-5.8,1.7-8.7c1.1-5,2.6-10,4.4-14.8c0.5-1.2,0.9-2.5,1.5-3.7c-1.3,3.1,0.4-0.9,0.6-1.3c1.3-2.8,2.7-5.5,4.2-8.2    c2.6-4.6,5.5-9,8.6-13.2c-1.7,2.3,0,0,0.5-0.6c0.7-0.8,1.4-1.7,2.1-2.5c2-2.3,4.1-4.6,6.2-6.7c1.8-1.8,3.8-3.6,5.7-5.4    c1-0.9,2-1.7,3-2.5c0.3-0.2,3.7-2.9,1.1-0.9c4.6-3.4,9.3-6.5,14.3-9.2c1.9-1.1,3.9-2.1,5.9-3c1.2-0.6,2.4-1.1,3.6-1.6    c-3.1,1.4,1-0.4,1.3-0.5c5.4-2.1,11-3.8,16.7-5c2.7-0.6,5.3-1.1,8-1.5c-3.4,0.6,1.1-0.1,1.5-0.2c1.4-0.1,2.8-0.3,4.1-0.4    c5.9-0.4,11.7-0.4,17.6,0.1c23.3,1.8,47.5,13.1,64.7,30.4c2.4,2.4,4.6,4.8,6.8,7.4c0.1,0.1,3.1,3.8,1.2,1.5    c1.2,1.5,2.3,3.1,3.4,4.7c3.8,5.6,7,11.4,10,17.5C371,481.7,373.9,497.8,374,512c0.1,7.8,6.9,15.4,15,15c8.1-0.4,15.1-6.6,15-15    c-0.4-60.3-41.7-114.8-100.4-129.9c-52.9-13.7-108.7,6.6-141.5,49.8c-31.7,41.7-34.9,100.4-9.4,145.9    c25.4,45.3,77.4,73.1,129.2,67.8c28.5-2.9,54.9-14.2,76.6-33c21.9-19.1,37.6-46.2,42.9-74.8c1.6-8.5,2.5-17.2,2.5-25.8    c0.1-7.8-6.9-15.4-15-15C380.9,497.4,374.1,503.6,374,512z"></path></g></g><g><path d="M873.5,787.8c0,65.9-53.4,119.2-119.2,119.2C688.4,907,635,853.6,635,787.8c0-21.5,5.7-41.6,15.6-59   c20.5-36,59.3-60.2,103.6-60.2C820.1,668.5,873.5,721.9,873.5,787.8z"></path><g><path d="M858.5,787.8c0,2.8-0.1,5.6-0.3,8.4c-0.1,1.4-0.2,2.8-0.4,4.1c-0.1,0.7-0.2,1.4-0.2,2.1    c-0.3,2.4,0.4-2.3,0,0.1c-1,5.8-2.2,11.5-4,17.1c-0.8,2.6-1.7,5.1-2.7,7.6c-0.2,0.6-0.5,1.2-0.7,1.9c0.1-0.2,0.9-2.1,0.2-0.5    c-0.6,1.4-1.3,2.8-2,4.2c-2.4,4.9-5.2,9.7-8.2,14.2c-0.7,1.1-1.5,2.2-2.3,3.2c-0.4,0.5-0.8,1.1-1.2,1.6c0.1-0.2,1.4-1.8,0.3-0.4    c-1.8,2.2-3.6,4.4-5.5,6.5c-3.8,4.2-8,8.1-12.3,11.7c-0.7,0.6-3.1,2.4-1.1,0.9c-1.1,0.8-2.1,1.6-3.2,2.3c-2.3,1.6-4.7,3.2-7.2,4.6    c-2.3,1.4-4.6,2.6-6.9,3.8c-1.2,0.6-2.4,1.2-3.6,1.7c-0.8,0.4-4.4,1.9-1.9,0.9c-5.2,2.1-10.5,3.9-15.9,5.2    c-2.8,0.7-5.7,1.3-8.6,1.8c-1,0.2-4.1,0.6-1.4,0.3c-1.6,0.2-3.2,0.4-4.8,0.5c-5.8,0.5-11.7,0.6-17.5,0.3c-2.8-0.2-5.5-0.4-8.3-0.8    c2.6,0.3-0.5-0.1-1.4-0.3c-1.6-0.3-3.1-0.6-4.7-0.9c-5.5-1.2-10.9-2.8-16.1-4.7c-0.5-0.2-4.4-1.8-3.2-1.2c1.3,0.6-1.9-0.9-2.4-1.1    c-2.6-1.2-5.1-2.5-7.6-3.9c-2.3-1.3-4.5-2.7-6.7-4.1c-1.1-0.7-2.2-1.5-3.3-2.2c-0.5-0.4-1.1-0.8-1.6-1.1c-0.2-0.2-2.4-1.8-1.1-0.8    c1.1,0.8-1.6-1.3-2.1-1.7c-1-0.8-2-1.7-3-2.6c-2.1-1.9-4.2-3.8-6.2-5.9c-1.8-1.9-3.6-3.8-5.3-5.8c-0.9-1-1.7-2-2.5-3    c-1.8-2.2-0.4-0.5-0.1-0.1c-0.5-0.7-1-1.4-1.5-2.1c-3.2-4.5-6.1-9.1-8.6-14c-1.2-2.3-2.4-4.7-3.5-7.1c-0.7-1.6,0.1,0.3,0.2,0.5    c-0.3-0.6-0.5-1.2-0.7-1.9c-0.6-1.5-1.1-2.9-1.6-4.4c-1.8-5.3-3.3-10.7-4.3-16.3c-0.3-1.3-0.5-2.7-0.7-4c-0.3-1.8,0,0.3,0.1,0.6    c-0.1-0.9-0.2-1.8-0.3-2.7c-0.3-3-0.5-6-0.6-9c-0.1-3.2-0.1-6.5,0.1-9.7c0.2-3.5,0.5-7,0.9-9.1c1.2-7,2.9-14,5.3-20.7    c1.2-3.4,1.9-4.9,3-7.3c1.5-3.2,3.2-6.4,5-9.4c1.6-2.7,3.3-5.3,5.1-7.9c0.8-1.2,1.7-2.3,2.5-3.5c1-1.4,0,0-0.1,0.2    c0.6-0.7,1.2-1.5,1.8-2.2c3.8-4.6,8-8.9,12.5-12.8c1.1-0.9,2.2-1.9,3.3-2.8c0.6-0.5,1.1-0.9,1.7-1.4c-0.2,0.2-1.6,1.2-0.2,0.2    c2.5-1.8,5.1-3.6,7.7-5.3c2.4-1.5,5-3,7.5-4.3c1.3-0.7,2.6-1.3,3.9-2c0.7-0.3,5.3-2.4,3.1-1.5c5.7-2.3,11.5-4.2,17.5-5.6    c2.9-0.7,5.8-1.2,8.8-1.7c1.8-0.3,0.1,0-0.3,0c0.7-0.1,1.5-0.2,2.3-0.3c1.8-0.2,3.5-0.3,5.3-0.5c6-0.4,12.1-0.3,18.2,0.2    c1.4,0.1,2.7,0.3,4.1,0.4c1.8,0.2-0.3,0-0.6-0.1c0.7,0.1,1.4,0.2,2,0.3c3.1,0.5,6.2,1.2,9.3,2c5.4,1.4,10.7,3.1,15.9,5.2    c-2.4-1,0.4,0.2,1.3,0.6c1.2,0.6,2.4,1.1,3.6,1.7c2.6,1.3,5.1,2.7,7.5,4.1c2.3,1.3,4.5,2.8,6.6,4.3c1.1,0.7,2.1,1.5,3.2,2.3    c1.4,1-0.2-0.2-0.4-0.4c0.7,0.5,1.4,1.1,2,1.6c4.4,3.6,8.5,7.5,12.3,11.7c1.8,1.9,3.4,3.9,5.1,6c1.8,2.2-0.8-1.2,0.8,1.1    c0.9,1.3,1.8,2.5,2.6,3.8c3.1,4.5,5.8,9.3,8.2,14.2c0.6,1.2,1.1,2.4,1.7,3.6c1.2,2.6-0.4-1.4,0.6,1.3c1,2.7,2,5.4,2.9,8.2    c1.8,5.6,3,11.3,4,17.1c0.3,1.8,0-0.3-0.1-0.6c0.1,0.7,0.2,1.4,0.2,2.1c0.2,1.4,0.3,2.8,0.4,4.1    C858.4,781.7,858.4,784.7,858.5,787.8c0,7.8,6.9,15.4,15,15c8.1-0.4,15-6.6,15-15c-0.3-54.9-33.9-103.8-84.5-124.6    c-52.5-21.6-116.6-5.6-152.6,38.4c-20.5,25.1-32.1,56.4-31.4,89c0.6,26.5,9,53.1,24.6,74.7c32.3,44.6,88.5,66,142.2,52.8    c50.8-12.5,91.8-56.3,99.7-108.3c1.1-7.3,1.8-14.6,1.9-22c0-7.8-6.9-15.4-15-15C865.3,773.1,858.5,779.3,858.5,787.8z"></path></g></g><g><g><path d="M383.5,470.3c31.2-17.8,62.5-35.6,93.7-53.4c49.8-28.3,99.5-56.7,149.3-85c11.4-6.5,22.7-12.9,34.1-19.4    c9.1-5.2,13-18.4,7.2-27.4c-5.9-9.2-17.6-12.7-27.4-7.2c-31.2,17.8-62.5,35.6-93.7,53.4c-49.8,28.3-99.5,56.7-149.3,85    c-11.4,6.5-22.7,12.9-34.1,19.4c-9.1,5.2-13,18.4-7.2,27.4C362.1,472.3,373.8,475.8,383.5,470.3L383.5,470.3z"></path></g></g><g><g><path d="M660.7,711.5c-31.2-17.8-62.5-35.6-93.7-53.4c-49.8-28.3-99.5-56.7-149.3-85    c-11.4-6.5-22.7-12.9-34.1-19.4c-9.1-5.2-22.3-2.4-27.4,7.2c-5,9.5-2.5,21.8,7.2,27.4c31.2,17.8,62.5,35.6,93.7,53.4    c49.8,28.3,99.5,56.7,149.3,85c11.4,6.5,22.7,12.9,34.1,19.4c9.1,5.2,22.3,2.4,27.4-7.2C672.9,729.4,670.4,717,660.7,711.5    L660.7,711.5z"></path></g></g></svg>
